<svg width="472" height="124" viewBox="0 0 472 124" fill="none" xmlns="http://www.w3.org/2000/svg">
<path d="M449.982 98H436.018V41.9941H414.973V27.9805H470.979V41.9941H449.982V98Z" fill="#B3DFD3"/>
<path d="M411.182 63.2832C411.182 66.6035 410.742 69.8099 409.863 72.9023C409.017 75.9622 407.812 78.8431 406.25 81.5449C404.688 84.2142 402.799 86.6556 400.586 88.8691C398.372 91.0827 395.931 92.987 393.262 94.582C390.592 96.1445 387.712 97.349 384.619 98.1953C381.527 99.0742 378.32 99.5137 375 99.5137C371.68 99.5137 368.473 99.0742 365.381 98.1953C362.321 97.349 359.44 96.1445 356.738 94.582C354.069 92.987 351.628 91.0827 349.414 88.8691C347.201 86.6556 345.296 84.2142 343.701 81.5449C342.139 78.8431 340.918 75.9622 340.039 72.9023C339.193 69.8099 338.77 66.6035 338.77 63.2832C338.77 59.9629 339.193 56.7565 340.039 53.6641C340.918 50.5716 342.139 47.6908 343.701 45.0215C345.296 42.3522 347.201 39.9108 349.414 37.6973C351.628 35.4837 354.069 33.5957 356.738 32.0332C359.44 30.4707 362.321 29.2663 365.381 28.4199C368.473 27.541 371.68 27.1016 375 27.1016C378.32 27.1016 381.527 27.541 384.619 28.4199C387.712 29.2663 390.592 30.4707 393.262 32.0332C395.931 33.5957 398.372 35.4837 400.586 37.6973C402.799 39.9108 404.688 42.3522 406.25 45.0215C407.812 47.6908 409.017 50.5716 409.863 53.6641C410.742 56.7565 411.182 59.9629 411.182 63.2832ZM397.266 63.2832C397.266 60.2233 396.68 57.3424 395.508 54.6406C394.336 51.9062 392.741 49.5462 390.723 47.5605C388.737 45.5423 386.377 43.9473 383.643 42.7754C380.941 41.6035 378.06 41.0176 375 41.0176C371.908 41.0176 369.01 41.6035 366.309 42.7754C363.607 43.9473 361.247 45.5423 359.229 47.5605C357.21 49.5462 355.615 51.9062 354.443 54.6406C353.271 57.3424 352.686 60.2233 352.686 63.2832C352.686 66.3431 353.271 69.224 354.443 71.9258C355.615 74.5951 357.21 76.9388 359.229 78.957C361.247 80.9753 363.607 82.5703 366.309 83.7422C369.01 84.9141 371.908 85.5 375 85.5C378.06 85.5 380.941 84.9141 383.643 83.7422C386.377 82.5703 388.737 80.9753 390.723 78.957C392.741 76.9388 394.336 74.5951 395.508 71.9258C396.68 69.224 397.266 66.3431 397.266 63.2832Z" fill="#FEAFBE"/>
<path d="M331.699 77.0039C331.699 79.901 331.146 82.6191 330.039 85.1582C328.932 87.6973 327.419 89.9271 325.498 91.8477C323.61 93.7357 321.396 95.2331 318.857 96.3398C316.318 97.4466 313.6 98 310.703 98H275.693V27.9805H310.703C313.6 27.9805 316.318 28.5339 318.857 29.6406C321.396 30.7474 323.61 32.2611 325.498 34.1816C327.419 36.0697 328.932 38.2832 330.039 40.8223C331.146 43.3613 331.699 46.0794 331.699 48.9766C331.699 50.2786 331.52 51.6133 331.162 52.9805C330.804 54.3477 330.299 55.666 329.648 56.9355C328.997 58.2051 328.216 59.3607 327.305 60.4023C326.393 61.444 325.384 62.3066 324.277 62.9902C325.417 63.6087 326.442 64.4551 327.354 65.5293C328.265 66.571 329.046 67.7266 329.697 68.9961C330.348 70.2656 330.837 71.6003 331.162 73C331.52 74.3672 331.699 75.7018 331.699 77.0039ZM289.707 83.9863H310.703C311.68 83.9863 312.591 83.8073 313.438 83.4492C314.284 83.0911 315.016 82.6029 315.635 81.9844C316.286 81.3333 316.79 80.5846 317.148 79.7383C317.507 78.8919 317.686 77.9805 317.686 77.0039C317.686 76.0273 317.507 75.1159 317.148 74.2695C316.79 73.4232 316.286 72.6908 315.635 72.0723C315.016 71.4212 314.284 70.9167 313.438 70.5586C312.591 70.2005 311.68 70.0215 310.703 70.0215H289.707V83.9863ZM289.707 56.0078H310.703C311.68 56.0078 312.591 55.8288 313.438 55.4707C314.284 55.1126 315.016 54.6243 315.635 54.0059C316.286 53.3548 316.79 52.6061 317.148 51.7598C317.507 50.8809 317.686 49.9531 317.686 48.9766C317.686 48 317.507 47.0885 317.148 46.2422C316.79 45.3958 316.286 44.6634 315.635 44.0449C315.016 43.3939 314.284 42.8893 313.438 42.5312C312.591 42.1732 311.68 41.9941 310.703 41.9941H289.707V56.0078Z" fill="#97D4D9"/>
<path d="M187.826 48.9766C187.826 46.0794 188.38 43.3613 189.486 40.8223C190.593 38.2832 192.09 36.0697 193.979 34.1816C195.899 32.2611 198.129 30.7474 200.668 29.6406C203.207 28.5339 205.925 27.9805 208.822 27.9805H240.951V41.9941H208.822C207.846 41.9941 206.934 42.1732 206.088 42.5312C205.242 42.8893 204.493 43.3939 203.842 44.0449C203.223 44.6634 202.735 45.3958 202.377 46.2422C202.019 47.0885 201.84 48 201.84 48.9766C201.84 49.9531 202.019 50.8809 202.377 51.7598C202.735 52.6061 203.223 53.3548 203.842 54.0059C204.493 54.6243 205.242 55.1126 206.088 55.4707C206.934 55.8288 207.846 56.0078 208.822 56.0078H222.836C225.733 56.0078 228.451 56.5612 230.99 57.668C233.562 58.7422 235.792 60.2396 237.68 62.1602C239.6 64.0482 241.098 66.278 242.172 68.8496C243.279 71.3887 243.832 74.1068 243.832 77.0039C243.832 79.901 243.279 82.6191 242.172 85.1582C241.098 87.6973 239.6 89.9271 237.68 91.8477C235.792 93.7357 233.562 95.2331 230.99 96.3398C228.451 97.4466 225.733 98 222.836 98H191.732V83.9863H222.836C223.812 83.9863 224.724 83.8073 225.57 83.4492C226.417 83.0911 227.149 82.6029 227.768 81.9844C228.419 81.3333 228.923 80.5846 229.281 79.7383C229.639 78.8919 229.818 77.9805 229.818 77.0039C229.818 76.0273 229.639 75.1159 229.281 74.2695C228.923 73.4232 228.419 72.6908 227.768 72.0723C227.149 71.4212 226.417 70.9167 225.57 70.5586C224.724 70.2005 223.812 70.0215 222.836 70.0215H208.822C205.925 70.0215 203.207 69.4681 200.668 68.3613C198.129 67.2546 195.899 65.7572 193.979 63.8691C192.09 61.9486 190.593 59.7188 189.486 57.1797C188.38 54.6081 187.826 51.8737 187.826 48.9766Z" fill="#EFC764"/>
<path d="M184.383 27.9805L161.385 98H147.371L124.471 27.9805H140.389L154.354 74.709L168.367 27.9805H184.383Z" fill="#A45A49"/>
<path d="M120.586 98H72.5879V27.9805H120.586V41.9941H86.6016V56.0078H109.6V70.0215H86.6016V83.9863H120.586V98Z" fill="#B3DFD3"/>
<path d="M62.8828 62.9902C62.8828 66.2129 62.4596 69.3216 61.6133 72.3164C60.7995 75.2786 59.6276 78.0618 58.0977 80.666C56.5677 83.2376 54.7448 85.5977 52.6289 87.7461C50.513 89.862 48.153 91.6849 45.5488 93.2148C42.9447 94.7448 40.1452 95.9329 37.1504 96.7793C34.1882 97.5931 31.0957 98 27.873 98H6.7793V27.9805H27.873C31.0957 27.9805 34.1882 28.4036 37.1504 29.25C40.1452 30.0638 42.9447 31.2357 45.5488 32.7656C48.153 34.2956 50.513 36.1348 52.6289 38.2832C54.7448 40.3991 56.5677 42.7591 58.0977 45.3633C59.6276 47.9349 60.7995 50.7181 61.6133 53.7129C62.4596 56.6751 62.8828 59.7676 62.8828 62.9902ZM48.8691 62.9902C48.8691 60.0931 48.3158 57.375 47.209 54.8359C46.1348 52.2969 44.6374 50.0833 42.7168 48.1953C40.8288 46.2747 38.599 44.7611 36.0273 43.6543C33.4883 42.5475 30.7702 41.9941 27.873 41.9941H20.8906V83.9863H27.873C30.7702 83.9863 33.4883 83.4492 36.0273 82.375C38.599 81.2682 40.8288 79.7708 42.7168 77.8828C44.6374 75.9622 46.1348 73.7324 47.209 71.1934C48.3158 68.6217 48.8691 65.8874 48.8691 62.9902Z" fill="#FEAFBE"/>
</svg>
